<svg xmlns="http://www.w3.org/2000/svg" xmlns:xlink="http://www.w3.org/1999/xlink" width="800" zoomAndPan="magnify" viewBox="0 0 600 599.999999" height="800" preserveAspectRatio="xMidYMid meet" version="1.0"><path stroke-linecap="butt" transform="matrix(0.749274, -0.032998, 0.032998, 0.749274, 364.994164, 427.166594)" fill="none" stroke-linejoin="miter" d="M -0.00202283 1.998471 L 119.363489 2.000231 " stroke="#000000" stroke-width="4" stroke-opacity="1" stroke-miterlimit="4"/><path fill="#e65750" d="M 271.875 37.5 C 175.097656 37.5 92.597656 98.605469 60.832031 184.335938 L 271.875 262.5 Z M 271.875 37.5 " fill-opacity="1" fill-rule="nonzero"/><path fill="#a5e650" d="M 468.75 100.65625 C 425.5625 61.636719 365.902344 37.5 300 37.5 L 300 253.125 Z M 468.75 100.65625 " fill-opacity="1" fill-rule="nonzero"/><path fill="#f5c255" d="M 70.207031 220.351562 C 61.1875 244.699219 56.25 271.027344 56.25 298.511719 C 56.25 392.101562 113.394531 472.335938 194.691406 506.25 L 281.25 298.511719 Z M 70.207031 220.351562 " fill-opacity="1" fill-rule="nonzero"/><path fill="#50b0e6" d="M 318.75 290.351562 L 543.75 290.351562 C 543.75 228.21875 518.566406 171.96875 477.847656 131.25 Z M 318.75 290.351562 " fill-opacity="1" fill-rule="nonzero"/><path fill="#3c84ac" d="M 225 526.488281 C 251.644531 537.601562 280.882812 543.75 311.558594 543.75 C 435.820312 543.75 536.558594 443.015625 536.558594 318.75 L 311.558594 318.75 Z M 225 526.488281 " fill-opacity="1" fill-rule="nonzero"/><path fill="#20475d" d="M 440.625 571.875 L 393.75 571.875 C 388.574219 571.875 384.375 567.675781 384.375 562.5 L 384.375 450 C 384.375 444.824219 388.574219 440.625 393.75 440.625 C 398.925781 440.625 403.125 444.824219 403.125 450 L 403.125 553.125 L 440.625 553.125 C 445.800781 553.125 450 557.324219 450 562.5 C 450 567.675781 445.800781 571.875 440.625 571.875 Z M 440.625 571.875 " fill-opacity="1" fill-rule="nonzero"/><path fill="#3c84ac" d="M 590.625 543.75 L 525 543.75 C 519.824219 543.75 515.625 539.550781 515.625 534.375 C 515.625 529.199219 519.824219 525 525 525 L 590.625 525 C 595.800781 525 600 529.199219 600 534.375 C 600 539.550781 595.800781 543.75 590.625 543.75 Z M 590.625 543.75 " fill-opacity="1" fill-rule="nonzero"/><path fill="#3c84ac" d="M 590.625 571.875 L 487.5 571.875 C 482.324219 571.875 478.125 567.675781 478.125 562.5 C 478.125 557.324219 482.324219 553.125 487.5 553.125 L 590.625 553.125 C 595.800781 553.125 600 557.324219 600 562.5 C 600 567.675781 595.800781 571.875 590.625 571.875 Z M 590.625 571.875 " fill-opacity="1" fill-rule="nonzero"/><path fill="#3c84ac" d="M 590.625 600 L 487.5 600 C 482.324219 600 478.125 595.800781 478.125 590.625 C 478.125 585.449219 482.324219 581.25 487.5 581.25 L 590.625 581.25 C 595.800781 581.25 600 585.449219 600 590.625 C 600 595.800781 595.800781 600 590.625 600 Z M 590.625 600 " fill-opacity="1" fill-rule="nonzero"/><path fill="#957634" d="M 168.75 562.5 L 131.25 562.5 C 126.074219 562.5 121.875 558.300781 121.875 553.125 C 121.875 547.949219 126.074219 543.75 131.25 543.75 L 159.375 543.75 L 159.375 450 C 159.375 444.824219 163.574219 440.625 168.75 440.625 C 173.925781 440.625 178.125 444.824219 178.125 450 L 178.125 553.125 C 178.125 558.300781 173.925781 562.5 168.75 562.5 Z M 168.75 562.5 " fill-opacity="1" fill-rule="nonzero"/><path fill="#f5c255" d="M 103.125 515.625 L 75 515.625 C 69.824219 515.625 65.625 511.425781 65.625 506.25 C 65.625 501.074219 69.824219 496.875 75 496.875 L 103.125 496.875 C 108.300781 496.875 112.5 501.074219 112.5 506.25 C 112.5 511.425781 108.300781 515.625 103.125 515.625 Z M 103.125 515.625 " fill-opacity="1" fill-rule="nonzero"/><path fill="#f5c255" d="M 103.125 543.75 L 9.375 543.75 C 4.199219 543.75 0 539.550781 0 534.375 C 0 529.199219 4.199219 525 9.375 525 L 103.125 525 C 108.300781 525 112.5 529.199219 112.5 534.375 C 112.5 539.550781 108.300781 543.75 103.125 543.75 Z M 103.125 543.75 " fill-opacity="1" fill-rule="nonzero"/><path fill="#f5c255" d="M 103.125 571.875 L 9.375 571.875 C 4.199219 571.875 0 567.675781 0 562.5 C 0 557.324219 4.199219 553.125 9.375 553.125 L 103.125 553.125 C 108.300781 553.125 112.5 557.324219 112.5 562.5 C 112.5 567.675781 108.300781 571.875 103.125 571.875 Z M 103.125 571.875 " fill-opacity="1" fill-rule="nonzero"/><path fill="#f5c255" d="M 103.125 600 L 9.375 600 C 4.199219 600 0 595.800781 0 590.625 C 0 585.449219 4.199219 581.25 9.375 581.25 L 103.125 581.25 C 108.300781 581.25 112.5 585.449219 112.5 590.625 C 112.5 595.800781 108.300781 600 103.125 600 Z M 103.125 600 " fill-opacity="1" fill-rule="nonzero"/><path fill="#662623" d="M 168.75 131.25 C 163.574219 131.25 159.375 127.050781 159.375 121.875 L 159.375 46.875 L 121.875 46.875 C 116.699219 46.875 112.5 42.675781 112.5 37.5 C 112.5 32.324219 116.699219 28.125 121.875 28.125 L 168.75 28.125 C 173.925781 28.125 178.125 32.324219 178.125 37.5 L 178.125 121.875 C 178.125 127.050781 173.925781 131.25 168.75 131.25 Z M 168.75 131.25 " fill-opacity="1" fill-rule="nonzero"/><path fill="#e65750" d="M 93.75 18.75 L 37.5 18.75 C 32.324219 18.75 28.125 14.550781 28.125 9.375 C 28.125 4.199219 32.324219 0 37.5 0 L 93.75 0 C 98.925781 0 103.125 4.199219 103.125 9.375 C 103.125 14.550781 98.925781 18.75 93.75 18.75 Z M 93.75 18.75 " fill-opacity="1" fill-rule="nonzero"/><path fill="#e65750" d="M 93.75 46.875 L 9.375 46.875 C 4.199219 46.875 0 42.675781 0 37.5 C 0 32.324219 4.199219 28.125 9.375 28.125 L 93.75 28.125 C 98.925781 28.125 103.125 32.324219 103.125 37.5 C 103.125 42.675781 98.925781 46.875 93.75 46.875 Z M 93.75 46.875 " fill-opacity="1" fill-rule="nonzero"/><path fill="#e65750" d="M 93.75 75 L 9.375 75 C 4.199219 75 0 70.800781 0 65.625 C 0 60.449219 4.199219 56.25 9.375 56.25 L 93.75 56.25 C 98.925781 56.25 103.125 60.449219 103.125 65.625 C 103.125 70.800781 98.925781 75 93.75 75 Z M 93.75 75 " fill-opacity="1" fill-rule="nonzero"/><path fill="#4c6a25" d="M 393.75 112.5 C 388.574219 112.5 384.375 108.300781 384.375 103.125 L 384.375 9.375 C 384.375 4.199219 388.574219 0 393.75 0 L 478.125 0 C 483.300781 0 487.5 4.199219 487.5 9.375 C 487.5 14.550781 483.300781 18.75 478.125 18.75 L 403.125 18.75 L 403.125 103.125 C 403.125 108.300781 398.925781 112.5 393.75 112.5 Z M 393.75 112.5 " fill-opacity="1" fill-rule="nonzero"/><path fill="#a5e650" d="M 590.625 18.75 L 543.75 18.75 C 538.574219 18.75 534.375 14.550781 534.375 9.375 C 534.375 4.199219 538.574219 0 543.75 0 L 590.625 0 C 595.800781 0 600 4.199219 600 9.375 C 600 14.550781 595.800781 18.75 590.625 18.75 Z M 590.625 18.75 " fill-opacity="1" fill-rule="nonzero"/><path fill="#a5e650" d="M 590.625 46.875 L 515.625 46.875 C 510.449219 46.875 506.25 42.675781 506.25 37.5 C 506.25 32.324219 510.449219 28.125 515.625 28.125 L 590.625 28.125 C 595.800781 28.125 600 32.324219 600 37.5 C 600 42.675781 595.800781 46.875 590.625 46.875 Z M 590.625 46.875 " fill-opacity="1" fill-rule="nonzero"/><path fill="#a5e650" d="M 590.625 75 L 515.625 75 C 510.449219 75 506.25 70.800781 506.25 65.625 C 506.25 60.449219 510.449219 56.25 515.625 56.25 L 590.625 56.25 C 595.800781 56.25 600 60.449219 600 65.625 C 600 70.800781 595.800781 75 590.625 75 Z M 590.625 75 " fill-opacity="1" fill-rule="nonzero"/><path fill="#20475d" d="M 571.875 262.5 L 506.25 262.5 C 501.074219 262.5 496.875 258.300781 496.875 253.125 C 496.875 247.949219 501.074219 243.75 506.25 243.75 L 562.5 243.75 L 562.5 187.5 C 562.5 182.324219 566.699219 178.125 571.875 178.125 C 577.050781 178.125 581.25 182.324219 581.25 187.5 L 581.25 253.125 C 581.25 258.300781 577.050781 262.5 571.875 262.5 Z M 571.875 262.5 " fill-opacity="1" fill-rule="nonzero"/><path fill="#50b0e6" d="M 590.625 131.25 L 562.5 131.25 C 557.324219 131.25 553.125 127.050781 553.125 121.875 C 553.125 116.699219 557.324219 112.5 562.5 112.5 L 590.625 112.5 C 595.800781 112.5 600 116.699219 600 121.875 C 600 127.050781 595.800781 131.25 590.625 131.25 Z M 590.625 131.25 " fill-opacity="1" fill-rule="nonzero"/><path fill="#50b0e6" d="M 590.625 159.375 L 543.75 159.375 C 538.574219 159.375 534.375 155.175781 534.375 150 C 534.375 144.824219 538.574219 140.625 543.75 140.625 L 590.625 140.625 C 595.800781 140.625 600 144.824219 600 150 C 600 155.175781 595.800781 159.375 590.625 159.375 Z M 590.625 159.375 " fill-opacity="1" fill-rule="nonzero"/></svg>