<svg xmlns="http://www.w3.org/2000/svg" xmlns:xlink="http://www.w3.org/1999/xlink" width="800" zoomAndPan="magnify" viewBox="0 0 600 599.999999" height="800" preserveAspectRatio="xMidYMid meet" version="1.0"><path stroke-linecap="butt" transform="matrix(0.749274, -0.032998, 0.032998, 0.749274, 364.994164, 427.166594)" fill="none" stroke-linejoin="miter" d="M -0.00202283 1.998471 L 119.363489 2.000231 " stroke="#000000" stroke-width="4" stroke-opacity="1" stroke-miterlimit="4"/><path fill="#ff9933" d="M 511.625 65.320312 L 511.625 517.71875 C 511.625 537.886719 495.261719 554.25 475.105469 554.25 L 133.421875 554.25 C 113.261719 554.25 96.902344 537.886719 96.902344 517.71875 L 96.902344 65.320312 C 96.902344 45.152344 113.261719 28.789062 133.421875 28.789062 L 475.105469 28.789062 C 495.261719 28.789062 511.625 45.152344 511.625 65.320312 Z M 511.625 65.320312 " fill-opacity="1" fill-rule="nonzero"/><path fill="#ff8b22" d="M 511.625 65.320312 L 511.625 517.71875 C 511.625 537.886719 495.261719 554.25 475.105469 554.25 L 133.421875 554.25 C 113.261719 554.25 96.902344 537.886719 96.902344 517.71875 L 96.902344 517.136719 L 365.835938 517.136719 C 425.730469 517.136719 474.375 468.476562 474.375 408.566406 L 474.375 28.789062 L 475.105469 28.789062 C 495.261719 28.789062 511.625 45.152344 511.625 65.320312 Z M 511.625 65.320312 " fill-opacity="1" fill-rule="nonzero"/><path fill="#e5e8f9" d="M 133.421875 65.320312 L 475.105469 65.320312 L 475.105469 517.71875 L 133.421875 517.71875 Z M 133.421875 65.320312 " fill-opacity="1" fill-rule="nonzero"/><path fill="#d6dbf2" d="M 475.105469 65.320312 L 475.105469 517.71875 L 133.421875 517.71875 L 133.421875 474.027344 L 290.898438 474.027344 C 368.464844 474.027344 431.28125 411.050781 431.28125 333.457031 L 431.28125 65.320312 Z M 475.105469 65.320312 " fill-opacity="1" fill-rule="nonzero"/><path fill="#6699ff" d="M 409.660156 12.128906 L 409.660156 66.925781 C 409.660156 73.648438 404.109375 79.054688 397.390625 79.054688 L 210.992188 79.054688 C 204.269531 79.054688 198.867188 73.648438 198.867188 66.925781 L 198.867188 12.128906 C 198.867188 5.40625 204.269531 0 210.992188 0 L 397.390625 0 C 404.109375 0 409.660156 5.40625 409.660156 12.128906 Z M 409.660156 12.128906 " fill-opacity="1" fill-rule="nonzero"/><path fill="#4e8cf2" d="M 409.660156 12.128906 L 409.660156 66.925781 C 409.660156 73.648438 404.109375 79.054688 397.390625 79.054688 L 210.992188 79.054688 C 204.417969 79.054688 198.867188 73.648438 198.867188 66.925781 L 198.867188 53.335938 L 340.5625 53.335938 C 364.519531 53.335938 383.949219 33.902344 383.949219 9.9375 L 383.949219 0 L 397.390625 0 C 404.109375 0 409.660156 5.554688 409.660156 12.128906 Z M 409.660156 12.128906 " fill-opacity="1" fill-rule="nonzero"/><path fill="#666666" d="M 429.527344 157.085938 L 253.207031 157.085938 C 249.265625 157.085938 246.195312 153.871094 246.195312 150.070312 C 246.195312 146.125 249.265625 143.058594 253.207031 143.058594 L 429.527344 143.058594 C 433.324219 143.058594 436.539062 146.125 436.539062 150.070312 C 436.539062 153.871094 433.324219 157.085938 429.527344 157.085938 Z M 429.527344 157.085938 " fill-opacity="1" fill-rule="nonzero"/><path fill="#666666" d="M 377.816406 199.753906 L 253.207031 199.753906 C 249.265625 199.753906 246.195312 196.683594 246.195312 192.738281 C 246.195312 188.941406 249.265625 185.726562 253.207031 185.726562 L 377.816406 185.726562 C 381.613281 185.726562 384.828125 188.941406 384.828125 192.738281 C 384.828125 196.683594 381.613281 199.753906 377.816406 199.753906 Z M 377.816406 199.753906 " fill-opacity="1" fill-rule="nonzero"/><path fill="#666666" d="M 179 194.054688 C 177.246094 194.054688 175.492188 193.46875 174.03125 192.007812 C 171.257812 189.378906 171.257812 184.847656 174.03125 182.21875 L 205.441406 150.800781 C 208.214844 148.023438 212.597656 148.023438 215.375 150.800781 C 218.148438 153.429688 218.148438 157.960938 215.375 160.589844 L 183.964844 192.007812 C 182.652344 193.46875 180.753906 194.054688 179 194.054688 Z M 179 194.054688 " fill-opacity="1" fill-rule="nonzero"/><path fill="#666666" d="M 210.40625 194.054688 C 208.652344 194.054688 206.902344 193.46875 205.441406 192.007812 L 174.03125 160.589844 C 171.257812 157.960938 171.257812 153.429688 174.03125 150.800781 C 176.808594 148.023438 181.191406 148.023438 183.964844 150.800781 L 215.375 182.21875 C 218.148438 184.847656 218.148438 189.378906 215.375 192.007812 C 214.058594 193.46875 212.160156 194.054688 210.40625 194.054688 Z M 210.40625 194.054688 " fill-opacity="1" fill-rule="nonzero"/><path fill="#666666" d="M 429.527344 248.121094 L 253.207031 248.121094 C 249.265625 248.121094 246.195312 244.90625 246.195312 241.105469 C 246.195312 237.160156 249.265625 234.09375 253.207031 234.09375 L 429.527344 234.09375 C 433.324219 234.09375 436.539062 237.160156 436.539062 241.105469 C 436.539062 244.90625 433.324219 248.121094 429.527344 248.121094 Z M 429.527344 248.121094 " fill-opacity="1" fill-rule="nonzero"/><path fill="#666666" d="M 377.816406 290.789062 L 253.207031 290.789062 C 249.265625 290.789062 246.195312 287.71875 246.195312 283.773438 C 246.195312 279.976562 249.265625 276.761719 253.207031 276.761719 L 377.816406 276.761719 C 381.613281 276.761719 384.828125 279.976562 384.828125 283.773438 C 384.828125 287.71875 381.613281 290.789062 377.816406 290.789062 Z M 377.816406 290.789062 " fill-opacity="1" fill-rule="nonzero"/><path fill="#666666" d="M 179 285.089844 C 177.246094 285.089844 175.492188 284.503906 174.03125 283.042969 C 171.257812 280.414062 171.257812 275.882812 174.03125 273.109375 L 205.441406 241.691406 C 208.214844 239.0625 212.597656 239.0625 215.375 241.691406 C 218.148438 244.46875 218.148438 248.996094 215.375 251.628906 L 183.964844 283.042969 C 182.652344 284.503906 180.753906 285.089844 179 285.089844 Z M 179 285.089844 " fill-opacity="1" fill-rule="nonzero"/><path fill="#666666" d="M 210.40625 285.089844 C 208.652344 285.089844 206.902344 284.503906 205.441406 283.042969 L 174.03125 251.628906 C 171.257812 248.996094 171.257812 244.46875 174.03125 241.691406 C 176.808594 239.0625 181.191406 239.0625 183.964844 241.691406 L 215.375 273.109375 C 218.148438 275.882812 218.148438 280.414062 215.375 283.042969 C 214.058594 284.503906 212.160156 285.089844 210.40625 285.089844 Z M 210.40625 285.089844 " fill-opacity="1" fill-rule="nonzero"/><path fill="#666666" d="M 429.527344 339.15625 L 253.207031 339.15625 C 249.265625 339.15625 246.195312 335.941406 246.195312 332.140625 C 246.195312 328.195312 249.265625 325.128906 253.207031 325.128906 L 429.527344 325.128906 C 433.324219 325.128906 436.539062 328.195312 436.539062 332.140625 C 436.539062 335.941406 433.324219 339.15625 429.527344 339.15625 Z M 429.527344 339.15625 " fill-opacity="1" fill-rule="nonzero"/><path fill="#666666" d="M 377.816406 381.824219 L 253.207031 381.824219 C 249.265625 381.824219 246.195312 378.609375 246.195312 374.808594 C 246.195312 370.863281 249.265625 367.796875 253.207031 367.796875 L 377.816406 367.796875 C 381.613281 367.796875 384.828125 370.863281 384.828125 374.808594 C 384.828125 378.609375 381.613281 381.824219 377.816406 381.824219 Z M 377.816406 381.824219 " fill-opacity="1" fill-rule="nonzero"/><path fill="#666666" d="M 179 376.125 C 177.246094 376.125 175.492188 375.539062 174.03125 374.078125 C 171.257812 371.304688 171.257812 366.917969 174.03125 364.144531 L 205.441406 332.726562 C 208.214844 330.097656 212.597656 330.097656 215.375 332.726562 C 218.148438 335.503906 218.148438 339.886719 215.375 342.664062 L 183.964844 374.078125 C 182.652344 375.539062 180.753906 376.125 179 376.125 Z M 179 376.125 " fill-opacity="1" fill-rule="nonzero"/><path fill="#666666" d="M 210.40625 376.125 C 208.652344 376.125 206.902344 375.539062 205.441406 374.078125 L 174.03125 342.664062 C 171.257812 339.886719 171.257812 335.503906 174.03125 332.726562 C 176.808594 330.097656 181.191406 330.097656 183.964844 332.726562 L 215.375 364.144531 C 218.148438 366.917969 218.148438 371.304688 215.375 374.078125 C 214.058594 375.539062 212.160156 376.125 210.40625 376.125 Z M 210.40625 376.125 " fill-opacity="1" fill-rule="nonzero"/><path fill="#ffc776" d="M 239.039062 429.460938 L 239.039062 583.914062 C 239.039062 591.953125 232.464844 598.527344 224.429688 598.527344 L 44.167969 598.527344 C 35.988281 598.527344 29.558594 591.953125 29.558594 583.914062 L 29.558594 429.460938 C 29.558594 421.425781 35.988281 414.847656 44.167969 414.847656 L 224.429688 414.847656 C 232.464844 414.847656 239.039062 421.425781 239.039062 429.460938 Z M 239.039062 429.460938 " fill-opacity="1" fill-rule="nonzero"/><path fill="#f4b25b" d="M 239.039062 429.460938 L 239.039062 583.914062 C 239.039062 591.953125 232.464844 598.527344 224.429688 598.527344 L 44.167969 598.527344 C 36.132812 598.527344 29.558594 591.953125 29.558594 583.914062 L 29.558594 566.671875 L 144.816406 566.671875 C 179.292969 566.671875 207.191406 538.761719 207.191406 504.277344 L 207.191406 414.847656 L 224.429688 414.847656 C 232.464844 414.847656 239.039062 421.425781 239.039062 429.460938 Z M 239.039062 429.460938 " fill-opacity="1" fill-rule="nonzero"/><path fill="#ffeaa9" d="M 111.949219 414.847656 L 156.503906 414.847656 L 156.503906 461.316406 L 111.949219 461.316406 Z M 111.949219 414.847656 " fill-opacity="1" fill-rule="nonzero"/><path fill="#c48a57" d="M 168.042969 544.605469 L 95.003906 544.605469 C 91.203125 544.605469 87.992188 541.539062 87.992188 537.59375 C 87.992188 533.792969 91.203125 530.578125 95.003906 530.578125 L 168.042969 530.578125 C 171.988281 530.578125 175.054688 533.792969 175.054688 537.59375 C 175.054688 541.539062 171.988281 544.605469 168.042969 544.605469 Z M 168.042969 544.605469 " fill-opacity="1" fill-rule="nonzero"/><path fill="#c48a57" d="M 168.042969 513.480469 L 95.003906 513.480469 C 91.203125 513.480469 87.992188 510.269531 87.992188 506.46875 C 87.992188 502.523438 91.203125 499.453125 95.003906 499.453125 L 168.042969 499.453125 C 171.988281 499.453125 175.054688 502.523438 175.054688 506.46875 C 175.054688 510.269531 171.988281 513.480469 168.042969 513.480469 Z M 168.042969 513.480469 " fill-opacity="1" fill-rule="nonzero"/><path fill="#ff4848" d="M 552.964844 484.695312 C 535.582031 442.613281 487.375 422.738281 445.449219 440.128906 C 403.523438 457.515625 383.511719 505.738281 400.894531 547.675781 C 418.277344 589.613281 466.484375 609.632812 508.410156 592.242188 C 550.480469 574.707031 570.347656 526.632812 552.964844 484.695312 Z M 552.964844 484.695312 " fill-opacity="1" fill-rule="nonzero"/><path fill="#f91c1c" d="M 558.953125 516.113281 C 558.953125 561.703125 522.140625 598.527344 476.710938 598.527344 C 445.449219 598.527344 418.425781 581.136719 404.546875 555.710938 C 416.234375 562.140625 429.671875 565.648438 443.84375 565.648438 C 489.273438 565.648438 525.941406 528.972656 525.941406 483.378906 C 525.941406 469.058594 522.433594 455.761719 516.152344 444.074219 C 541.714844 457.953125 558.953125 485.132812 558.953125 516.113281 Z M 558.953125 516.113281 " fill-opacity="1" fill-rule="nonzero"/><path fill="#ffffff" d="M 457.574219 542.269531 C 455.820312 542.269531 454.070312 541.683594 452.609375 540.222656 C 449.976562 537.59375 449.976562 533.0625 452.609375 530.433594 L 490.878906 492.148438 C 493.511719 489.519531 498.039062 489.519531 500.667969 492.148438 C 503.445312 494.925781 503.445312 499.453125 500.667969 502.085938 L 462.542969 540.222656 C 461.226562 541.683594 459.472656 542.269531 457.574219 542.269531 Z M 457.574219 542.269531 " fill-opacity="1" fill-rule="nonzero"/><path fill="#ffffff" d="M 495.847656 542.269531 C 493.949219 542.269531 492.195312 541.683594 490.878906 540.222656 L 452.609375 502.085938 C 449.976562 499.453125 449.976562 494.925781 452.609375 492.148438 C 455.382812 489.519531 459.910156 489.519531 462.542969 492.148438 L 500.667969 530.433594 C 503.445312 533.0625 503.445312 537.59375 500.667969 540.222656 C 499.351562 541.683594 497.601562 542.269531 495.847656 542.269531 Z M 495.847656 542.269531 " fill-opacity="1" fill-rule="nonzero"/></svg>